inDegrees=yes
name=ik_S51_A04_T02
DataType=double
version=3
OpenSimVersion=4.3-2021-08-27-4bc7ad9
endheader
time	pelvis_tilt	pelvis_list	pelvis_rotation	pelvis_tx	pelvis_ty	pelvis_tz	hip_flexion_r	hip_adduction_r	hip_rotation_r	knee_angle_r	knee_angle_r_beta	ankle_angle_r	subtalar_angle_r	mtp_angle_r	hip_flexion_l	hip_adduction_l	hip_rotation_l	knee_angle_l	knee_angle_l_beta	ankle_angle_l	subtalar_angle_l	mtp_angle_l	lumbar_extension	lumbar_bending	lumbar_rotation	arm_flex_r	arm_add_r	arm_rot_r	elbow_flex_r	pro_sup_r	wrist_flex_r	wrist_dev_r	arm_flex_l	arm_add_l	arm_rot_l	elbow_flex_l	pro_sup_l	wrist_flex_l	wrist_dev_l
16.01999999999975	-27.02171224777216	-14.30591928484656	33.4798612237505	0	0.9399999999999999	0	68.26955592976375	-35.93878144462516	-7.334135754371431	51.42040262866697	0.8974553285713858	0	0	0	78.75839876209898	1.243396636494925	-21.64281920194679	51.98321802769392	0.9072783103653317	0	0	0	0	0	0	27.05785509031118	-27.05785509031118	4.00350231493053	72.11070965650663	85.99649791139129	0	0	27.05785509031118	-27.05785509031118	4.00350231493053	72.11070965650663	85.99649791120595	0	0
16.03999999999975	-27.40810906195272	-14.44569190278291	33.3175769337053	0	0.9399999999999999	0	69.64605863927419	-36.59170134836771	-6.759336595766072	52.24290842068759	0.9118107627588693	0	0	0	80.17059268116563	0.6748967526844354	-21.85514289735459	53.08484272321538	0.9265052884234612	0	0	0	0	0	0	27.06405221595677	-27.06405221595677	4.004181446305443	72.11965479345615	85.99581878005243	0	0	27.06405221595677	-27.06405221595677	4.004181446305443	72.11965479345615	85.99581877986719	0	0
16.05999999999975	-27.98107649361704	-14.58967281727776	33.28665745853007	0	0.9399999999999999	0	71.13696775181995	-37.48574384568314	-6.415875450056215	53.19556950619943	0.9284378353566742	0	0	0	81.76265166943371	0.1413825711948581	-21.9729086440328	54.33726322363385	0.9483641497752385	0	0	0	0	0	0	27.07070663310695	-27.07070663310695	4.004909886006171	72.1292486141015	85.99509034039032	0	0	27.07070663310695	-27.07070663310695	4.004909886006171	72.1292486141015	85.99509034020521	0	0
16.07999999999975	-28.15973753392857	-14.67129821814994	33.37422031689076	0	0.9399999999999999	0	71.97438920239203	-38.29208013409522	-6.326638576420697	53.9447591584405	0.9415136615101523	0	0	0	81.93221918188553	0.2529551587586399	-22.11858841769862	54.39850287397623	0.9494329833064831	0	0	0	0	0	0	27.07374771849064	-27.07374771849064	4.005243863580946	72.13364798400701	85.99475636283321	0	0	27.07374771849064	-27.07374771849064	4.005243863580946	72.13364798400701	85.99475636264823	0	0
16.09999999999975	-27.93789278704681	-14.72709361939747	33.25769031774603	0	0.9399999999999999	0	73.21791581500518	-39.56441356618282	-6.097522939624401	55.8022111853349	0.9739323150773017	0	0	0	82.76692574712858	-0.5885787324501963	-22.33878170295474	55.62872021040797	0.9709043263423318	0	0	0	0	0	0	27.06426000401821	-27.06426000401821	4.004555000113541	72.12482684858779	85.99544522626674	0	0	27.06426000401821	-27.06426000401821	4.004555000113541	72.12482684858779	85.99544522608159	0	0
16.11999999999975	-27.9432417720304	-14.86658385760232	32.99855937166826	0	0.9399999999999999	0	73.27454170129869	-39.28541529182879	-6.152464725651492	55.79994808188685	0.9738928164708199	0	0	0	82.82170533875214	-0.8758816707611856	-22.38741202765321	55.65564716177892	0.9713742903012792	0	0	0	0	0	0	27.0654930827318	-27.0654930827318	4.004688518923994	72.12658426994427	85.9953117074634	0	0	27.0654930827318	-27.0654930827318	4.004688518923994	72.12658426994427	85.99531170727825	0	0
16.13999999999974	-28.51284424540903	-15.13604990969192	32.92702370244049	0	0.9399999999999999	0	74.9040569357763	-39.88232967579842	-5.663338660406621	56.66870638638558	0.9890555092883663	0	0	0	85.38974468332999	-1.653293640531129	-23.48881036204794	57.84282360475646	1.009547720553295	0	0	0	0	0	0	27.01191967737415	-27.01191967737415	3.999891132264003	72.0641747789805	86.00010909387719	0	0	27.01191967737415	-27.01191967737415	3.999891132264003	72.0641747789805	86.00010909369107	0	0
16.15999999999974	-28.7941058075432	-15.26042968553571	32.95268980092153	0	0.9399999999999999	0	76.21836755965676	-40.46234988636818	-4.940428365501177	57.36148936618633	1.001146853287667	0	0	0	87.82822905836461	-2.18072239115582	-23.3160702016839	60.13341357757658	1.049526057392174	0	0	0	0	0	0	27.01913911965915	-27.01913911965915	4.000683700798355	72.07461571036852	85.99931652538484	0	0	27.01913911965915	-27.01913911965915	4.000683700798355	72.07461571036852	85.99931652519889	0	0
16.17999999999974	-28.2675302717437	-15.13305219981608	33.0461460479433	0	0.9399999999999999	0	76.72096742840733	-40.80528235848739	-4.421947940560011	58.11096970004664	1.014227752792475	0	0	0	88.406363382941	-2.369623501845141	-23.19412570130268	61.08863308279086	1.066197782837434	0	0	0	0	0	0	27.0153663367041	-27.0153663367041	4.000456664628166	72.07175890701681	85.99954356154439	0	0	27.0153663367041	-27.0153663367041	4.000456664628166	72.07175890701681	85.99954356135837	0	0
16.19999999999974	-27.11480476664189	-14.8282551954867	33.04886979952501	0	0.9399999999999999	0	76.41740202216533	-40.86845480683083	-4.179673358351146	58.7688973232075	1.025710756056453	0	0	0	88.2680596009484	-2.808105682486842	-23.38977919253865	61.93442202332955	1.080959584626789	0	0	0	0	0	0	27.0681566712623	-27.0681566712623	4.005459741987859	72.13708227694933	85.9945404844439	0	0	27.0681566712623	-27.0681566712623	4.005459741987859	72.13708227694933	85.99454048425878	0	0
16.21999999999974	-26.89111912494945	-14.86113547816397	32.92588656473978	0	0.9399999999999999	0	77.16799246359871	-41.19098985675474	-3.616577928724636	59.44728944258599	1.03755093215919	0	0	0	89.15212205239618	-3.35659057486466	-23.07955651402978	62.91479917099457	1.098070393764854	0	0	0	0	0	0	27.07452541592373	-27.07452541592373	4.006158143867109	72.14628084557221	85.99384208260167	0	0	27.07452541592373	-27.07452541592373	4.006158143867109	72.14628084557221	85.99384208241672	0	0
16.23999999999974	-27.40764220950291	-15.04902985004467	33.10755508014442	0	0.9399999999999999	0	78.59399081515316	-42.09516596786879	-2.749409896457895	59.77463618276862	1.043264210571047	0	0	0	90.57048638045183	-3.36299299896356	-23.22021968546056	63.66645059041304	1.111189185860995	0	0	0	0	0	0	27.07794488371401	-27.07794488371401	4.006531016663967	72.15119035301407	85.99346920982462	0	0	27.07794488371401	-27.07794488371401	4.006531016663967	72.15119035301407	85.99346920963971	0	0
16.25999999999974	-27.68555062586933	-15.14116546245103	33.14533774208537	0	0.9399999999999999	0	79.88882056739789	-42.7946579472945	-1.88111437395435	60.4181289608069	1.054495278260621	0	0	0	91.71959730353927	-3.49627961132338	-23.31964645641976	64.50841081300419	1.125884163916035	0	0	0	0	0	0	27.08268445930464	-27.08268445930464	4.007050257485153	72.15802871071868	85.99294996903096	0	0	27.08268445930464	-27.08268445930464	4.007050257485153	72.15802871071868	85.99294996884615	0	0
16.27999999999974	-26.26383505830387	-14.23448081499492	33.59778797123979	0	0.9399999999999999	0	79.37063313975005	-43.4115141539037	-1.263503701183406	61.2914221671025	1.069737120045777	0	0	0	90.10835304800301	-3.326639616668048	-23.39471592975826	64.38766741959972	1.123776794151097	0	0	0	0	0	0	27.15019919745049	-27.15019919745049	4.013394913571909	72.24081864555974	85.98660531327239	0	0	27.15019919745049	-27.15019919745049	4.013394913571909	72.24081864555974	85.98660531308877	0	0
